<svg xmlns="http://www.w3.org/2000/svg" version="1.1" xmlns:xlink="http://www.w3.org/1999/xlink" xmlns:svgjs="http://svgjs.dev/svgjs" width="2000" height="358" viewBox="0 0 2000 358"><g transform="matrix(1,0,0,1,-1.2121212121212466,-2.0298988123020365)"><svg viewBox="0 0 396 71" data-background-color="#ffffff" preserveAspectRatio="xMidYMid meet" height="358" width="2000" xmlns="http://www.w3.org/2000/svg" xmlns:xlink="http://www.w3.org/1999/xlink"><g id="tight-bounds" transform="matrix(1,0,0,1,0.2400000000000091,0.4025776974118571)"><svg viewBox="0 0 395.52 70.19484460517629" height="70.19484460517629" width="395.52"><g><svg viewBox="0 0 459.95004184013885 81.62955530216647" height="70.19484460517629" width="395.52"><g transform="matrix(1,0,0,1,64.43004184013884,0)"><svg viewBox="0 0 395.52 81.62955530216647" height="81.62955530216647" width="395.52"><g id="textblocktransform"><svg viewBox="0 0 395.52 81.62955530216647" height="81.62955530216647" width="395.52" id="textblock"><g><svg viewBox="0 0 395.52 81.62955530216647" height="81.62955530216647" width="395.52"><g transform="matrix(1,0,0,1,0,0)"><svg width="395.52" viewBox="1.55 -35.7 176.33999999999997 36.150000000000006" height="81.62955530216647" data-palette-color="#ff851b"><path d="M21.65 0.45L21.65 0.45 9.7-25.8 10.3-25.8 8.65-9.35Q8.4-6.55 8.6-5.08 8.8-3.6 9.6-3 10.4-2.4 11.85-2.25L11.85-2.25Q12-1.7 12.08-1 12.15-0.3 12.15 0.15L12.15 0.15Q11 0.05 9.47 0.03 7.95 0 6.75 0L6.75 0Q6 0 5.03 0.03 4.05 0.05 3.13 0.08 2.2 0.1 1.55 0.15L1.55 0.15Q1.55-0.3 1.6-1 1.65-1.7 1.85-2.25L1.85-2.25Q3.15-2.4 3.95-2.98 4.75-3.55 5.2-5.08 5.65-6.6 5.9-9.7L5.9-9.7 7.45-26.6Q7.6-28.5 7.35-29.58 7.1-30.65 6.33-31.1 5.55-31.55 4.15-31.55L4.15-31.55Q3.95-32.1 3.9-32.75 3.85-33.4 3.85-33.95L3.85-33.95Q4.4-33.9 5.15-33.88 5.9-33.85 6.7-33.83 7.5-33.8 8.15-33.8L8.15-33.8Q8.85-33.8 9.6-33.83 10.35-33.85 11.08-33.88 11.8-33.9 12.4-33.95L12.4-33.95 25.05-5.8 23.85-5.8 34.8-33.95Q35.45-33.9 36.23-33.88 37-33.85 37.77-33.83 38.55-33.8 39.2-33.8L39.2-33.8Q39.9-33.8 40.63-33.83 41.35-33.85 42.08-33.88 42.8-33.9 43.45-33.95L43.45-33.95Q43.45-33.35 43.4-32.73 43.35-32.1 43.2-31.55L43.2-31.55Q41.35-31.55 40.43-30.48 39.5-29.4 39.85-26.35L39.85-26.35 41.55-8.75Q41.85-6.2 42.23-4.85 42.6-3.5 43.33-2.98 44.05-2.45 45.25-2.3L45.25-2.3Q45.4-1.75 45.45-1.1 45.5-0.45 45.5 0.15L45.5 0.15Q44.95 0.1 44.13 0.08 43.3 0.05 42.35 0.03 41.4 0 40.53 0 39.65 0 38.95 0L38.95 0Q38 0 36.83 0.03 35.65 0.05 34.52 0.08 33.4 0.1 32.6 0.15L32.6 0.15Q32.6-0.4 32.68-1.05 32.75-1.7 32.9-2.25L32.9-2.25Q34.5-2.45 35.23-2.93 35.95-3.4 36.08-4.63 36.2-5.85 35.95-8.1L35.95-8.1 34.05-25.95 34.7-25.95 24 0.1Q23.5 0.3 22.9 0.38 22.3 0.45 21.65 0.45ZM58.4 0.2L58.4 0.2Q54.95 0.2 53.02-1.75 51.1-3.7 51.1-8.75L51.1-8.75 51.1-15.8Q51.1-17.7 50.6-18.57 50.1-19.45 47.85-19.5L47.85-19.5Q47.85-20.1 47.92-20.63 48-21.15 48.25-21.65L48.25-21.65Q50.1-21.75 52.07-22.25 54.05-22.75 55.2-23.35L55.2-23.35Q55.7-23.15 56.05-22.65 56.4-22.15 56.4-21L56.4-21 56.4-9.9Q56.4-6.55 57.25-4.85 58.1-3.15 60.25-3.15L60.25-3.15Q62.6-3.15 64.2-5.2 65.8-7.25 65.8-11.55L65.8-11.55 65.8-16.05Q65.8-17.95 65.17-18.82 64.55-19.7 62.1-19.75L62.1-19.75Q62.1-20.35 62.15-20.88 62.2-21.4 62.5-21.9L62.5-21.9Q64.7-22 66.72-22.43 68.75-22.85 69.9-23.35L69.9-23.35Q70.4-23.15 70.75-22.65 71.1-22.15 71.1-21L71.1-21 71.1-6.65 66.5-4.8Q66.25-4.1 65.8-3.45 65.35-2.8 64.75-2.25L64.75-2.25Q63.5-1.05 62-0.43 60.5 0.2 58.4 0.2ZM67.6 0.45L67.6 0.45Q67 0.2 66.62-0.33 66.25-0.85 66.25-2.45L66.25-2.45Q66.25-3.05 66.35-4.08 66.45-5.1 66.75-6.7L66.75-6.7 71.1-7.25Q71.1-6 71.3-5.2 71.5-4.4 72.15-4.05 72.8-3.7 74.15-3.7L74.15-3.7Q74.15-3.1 74.1-2.4 74.05-1.7 73.8-1.1L73.8-1.1Q72.4-1.05 70.65-0.65 68.9-0.25 67.6 0.45ZM94.2-21.65L94.2-21.65Q94.15-20.4 94.15-19.05 94.15-17.7 94.35-16.4L94.35-16.4Q93.8-16.1 93.02-15.93 92.25-15.75 91.45-15.75L91.45-15.75Q91.35-17.1 90.67-18.3 90-19.5 88.85-20.25 87.7-21 86.1-21L86.1-21Q84.65-21 83.8-20.3 82.95-19.6 82.95-18.45L82.95-18.45Q82.95-17.65 83.3-17.03 83.65-16.4 84.9-15.68 86.15-14.95 88.75-13.9L88.75-13.9Q91.5-12.9 93.05-11.88 94.6-10.85 95.27-9.63 95.95-8.4 95.95-6.6L95.95-6.6Q95.95-4.5 94.72-2.9 93.5-1.3 91.32-0.43 89.15 0.45 86.4 0.45L86.4 0.45Q83.35 0.45 81.52-0.03 79.7-0.5 77.9-1.35L77.9-1.35Q78.05-2.2 78.07-3.35 78.1-4.5 78.1-5.63 78.1-6.75 78-7.55L78-7.55Q78.45-7.9 79.3-8.05 80.15-8.2 80.95-8.2L80.95-8.2Q81.35-5.15 82.82-3.65 84.3-2.15 86.75-2.15L86.75-2.15Q88.6-2.15 89.67-2.98 90.75-3.8 90.75-5.15L90.75-5.15Q90.75-6 90.32-6.65 89.9-7.3 88.8-7.93 87.7-8.55 85.5-9.4L85.5-9.4Q82.9-10.45 81.27-11.4 79.65-12.35 78.9-13.68 78.15-15 78.15-17.05L78.15-17.05Q78.15-18.65 78.95-19.85 79.75-21.05 81.02-21.83 82.3-22.6 83.82-22.98 85.35-23.35 86.75-23.35L86.75-23.35Q89.15-23.35 90.9-22.93 92.65-22.5 94.2-21.65ZM115.29 0.45L115.29 0.45Q114.69 0.2 114.34-0.48 113.99-1.15 113.99-2.5L113.99-2.5Q113.99-3 114.07-3.68 114.14-4.35 114.29-4.95L114.29-4.95 114.44-4.95Q114.24-4 113.67-3.05 113.09-2.1 112.24-1.35L112.24-1.35Q111.34-0.6 109.99-0.13 108.64 0.35 106.79 0.35L106.79 0.35Q103.59 0.35 101.87-1.07 100.14-2.5 100.14-5.05L100.14-5.05Q100.14-7 101.07-8.38 101.99-9.75 103.47-10.68 104.94-11.6 106.69-12.15 108.44-12.7 110.17-13.03 111.89-13.35 113.29-13.55L113.29-13.55Q113.29-15.45 113.22-16.55 113.14-17.65 112.92-18.32 112.69-19 112.24-19.5L112.24-19.5Q111.64-20.2 110.89-20.55 110.14-20.9 109.24-20.9L109.24-20.9Q107.64-20.9 106.74-19.93 105.84-18.95 105.44-17.63 105.04-16.3 104.94-15.15L104.94-15.15Q104.24-15.15 103.34-15.25 102.44-15.35 101.89-15.55L101.89-15.55Q101.99-16.85 101.97-18.4 101.94-19.95 101.64-21.15L101.64-21.15Q103.74-22.2 106.14-22.78 108.54-23.35 110.59-23.35L110.59-23.35Q112.74-23.35 114.19-22.8 115.64-22.25 116.44-21.35L116.44-21.35Q117.69-20.15 118.14-18.18 118.59-16.2 118.59-12.8L118.59-12.8 118.59-7.65Q118.59-6.2 118.82-5.35 119.04-4.5 119.69-4.13 120.34-3.75 121.64-3.7L121.64-3.7Q121.69-3.1 121.62-2.4 121.54-1.7 121.29-1.1L121.29-1.1Q119.89-1.05 118.24-0.65 116.59-0.25 115.29 0.45ZM108.49-2.8L108.49-2.8Q109.59-2.8 110.69-3.53 111.79-4.25 112.54-5.73 113.29-7.2 113.29-9.6L113.29-9.6 113.29-11.35Q111.99-11.15 110.64-10.85 109.29-10.55 108.17-10 107.04-9.45 106.37-8.55 105.69-7.65 105.69-6.15L105.69-6.15Q105.69-4.4 106.54-3.6 107.39-2.8 108.49-2.8ZM133.99-22.4L139.64-22.4Q139.64-21.8 139.54-21.1 139.44-20.4 139.14-19.85L139.14-19.85Q137.69-19.85 136.42-19.68 135.14-19.5 133.99-19.15L133.99-19.15 133.99-22.4ZM129.14-10.4L129.14-24.3Q129.14-28.1 130.67-30.65 132.19-33.2 134.67-34.45 137.14-35.7 139.89-35.7L139.89-35.7Q141.89-35.7 143.07-35.33 144.24-34.95 145.09-34.4L145.09-34.4Q144.99-32.9 144.94-31.33 144.89-29.75 144.89-28.4L144.89-28.4Q144.19-28.15 143.27-28.05 142.34-27.95 141.54-27.95L141.54-27.95Q141.54-30.1 140.69-31.45 139.84-32.8 137.89-32.8L137.89-32.8Q136.64-32.8 135.87-32.02 135.09-31.25 134.74-29.73 134.39-28.2 134.39-25.9L134.39-25.9 134.39-10.4 129.14-10.4ZM125.89-22.4L129.99-22.4 129.99-19.2Q128.69-19.6 127.39-19.75 126.09-19.9 125.19-19.9L125.19-19.9Q125.19-20.6 125.34-21.23 125.49-21.85 125.89-22.4L125.89-22.4ZM134.39-11.35L134.39-7.75Q134.39-5.6 134.87-4.45 135.34-3.3 136.37-2.85 137.39-2.4 138.99-2.25L138.99-2.25Q139.19-1.8 139.24-1.2 139.29-0.6 139.29 0.15L139.29 0.15Q138.49 0.1 137.39 0.08 136.29 0.05 135.07 0.03 133.84 0 132.59 0L132.59 0Q130.69 0 128.62 0.03 126.54 0.05 125.44 0.15L125.44 0.15Q125.44-0.65 125.49-1.25 125.54-1.85 125.69-2.25L125.69-2.25Q127.04-2.35 127.79-2.75 128.54-3.15 128.84-4.1 129.14-5.05 129.14-6.8L129.14-6.8 129.14-11.35 134.39-11.35ZM143.09 0.15L143.09 0.15Q143.09-0.45 143.16-1.1 143.24-1.75 143.39-2.25L143.39-2.25Q145.39-2.3 146.09-3.2 146.79-4.1 146.79-6.6L146.79-6.6 146.79-15.95Q146.79-17.15 146.56-17.93 146.34-18.7 145.54-19.1 144.74-19.5 143.04-19.5L143.04-19.5Q143.04-20.1 143.16-20.65 143.29-21.2 143.54-21.65L143.54-21.65Q144.54-21.65 146.04-21.9 147.54-22.15 148.89-22.55 150.24-22.95 150.89-23.35L150.89-23.35Q151.39-23.15 151.74-22.65 152.09-22.15 152.09-21.15L152.09-21.15 152.09-6.6Q152.09-4.1 152.76-3.2 153.44-2.3 155.09-2.25L155.09-2.25Q155.24-1.75 155.29-1.05 155.34-0.35 155.34 0.15L155.34 0.15Q154.54 0.1 153.54 0.08 152.54 0.05 151.44 0.03 150.34 0 149.29 0L149.29 0Q148.19 0 147.06 0.03 145.94 0.05 144.91 0.08 143.89 0.1 143.09 0.15ZM148.99-28.5L148.99-28.5Q147.54-28.5 146.61-29.38 145.69-30.25 145.69-31.55L145.69-31.55Q145.69-33.05 146.69-33.95 147.69-34.85 149.04-34.85L149.04-34.85Q150.59-34.85 151.49-33.95 152.39-33.05 152.39-31.6L152.39-31.6Q152.39-30.35 151.41-29.43 150.44-28.5 148.99-28.5ZM167.89-11.35L167.89-7.75Q167.89-5.6 168.34-4.45 168.79-3.3 169.81-2.85 170.84-2.4 172.49-2.25L172.49-2.25Q172.64-1.8 172.71-1.2 172.79-0.6 172.79 0.15L172.79 0.15Q171.99 0.1 170.89 0.08 169.79 0.05 168.54 0.03 167.29 0 166.04 0L166.04 0Q164.14 0 162.09 0.03 160.04 0.05 158.89 0.15L158.89 0.15Q158.89-0.65 158.94-1.25 158.99-1.85 159.19-2.25L159.19-2.25Q160.54-2.35 161.26-2.75 161.99-3.15 162.29-4.1 162.59-5.05 162.59-6.8L162.59-6.8 162.59-11.35 167.89-11.35ZM166.99-15.3L167.89-14.65 167.89-10.6 162.59-10.6 162.59-16.15 167.89-21Q167.89-19.45 167.59-18.1 167.29-16.75 166.99-15.3L166.99-15.3ZM167.89-11.9L166.79-15Q167.29-16.35 167.61-17.32 167.94-18.3 168.29-18.9L168.29-18.9Q169.39-20.65 170.91-21.8 172.44-22.95 174.44-22.95L174.44-22.95Q176.34-22.95 177.89-21.75L177.89-21.75Q177.79-20.9 177.69-19.78 177.59-18.65 177.56-17.53 177.54-16.4 177.54-15.45L177.54-15.45Q176.99-15.25 176.09-15.1 175.19-14.95 174.29-14.95L174.29-14.95Q174.19-17.2 173.56-17.98 172.94-18.75 171.94-18.75L171.94-18.75Q171.14-18.75 170.16-17.8 169.19-16.85 168.54-15.3 167.89-13.75 167.89-11.9L167.89-11.9ZM167.89-21L162.59-10.6 162.59-15.8Q162.59-17.1 162.36-17.88 162.14-18.65 161.34-19.05 160.54-19.45 158.89-19.5L158.89-19.5Q158.89-20.1 158.99-20.65 159.09-21.2 159.34-21.65L159.34-21.65Q161.24-21.75 163.39-22.25 165.54-22.75 166.69-23.35L166.69-23.35Q167.19-23.15 167.54-22.65 167.89-22.15 167.89-21L167.89-21Z" opacity="1" transform="matrix(1,0,0,1,0,0)" fill="#ff851b" class="wordmark-text-0" data-fill-palette-color="primary" id="text-0"></path></svg></g></svg></g></svg></g></svg></g><g transform="matrix(1,0,0,1,0,3.586802659977188)"><svg viewBox="0 0 45.15926294262459 74.45594998221209" height="74.45594998221209" width="45.15926294262459"><g><svg xmlns="http://www.w3.org/2000/svg" xmlns:xlink="http://www.w3.org/1999/xlink" version="1.1" x="0" y="0" viewBox="33.941554115680816 23.625 32.086445884319176 52.902254248593735" enable-background="new 0 0 100 100" xml:space="preserve" height="74.45594998221209" width="45.15926294262459" class="icon-icon-0" data-fill-palette-color="accent" id="icon-0"><path fill-rule="evenodd" clip-rule="evenodd" d="M52.9 35.3C53.2 35.4 53.3 35.4 53.5 35.2 53.6 35.1 53.7 35.1 53.8 35S54 34.9 54.1 34.8 54.3 34.7 54.4 34.6 54.6 34.5 54.7 34.4 55.2 34 55.4 33.9C55.5 33.8 55.7 33.6 55.8 33.6S56 33.4 56.1 33.4 56.3 33.2 56.4 33.2 56.6 33 56.7 33L56.9 32.9 57 32.7H57.2L57.3 32.5H57.5L57.6 32.3C57.8 32.2 57.9 32.2 58.1 32.1 58.2 32.1 58.1 32 58.2 32L58.4 31.9 58.5 31.7H58.7L58.8 31.5H59L59.1 31.3H59.3L59.4 31.1H59.6L59.7 30.9C59.9 30.8 60.1 30.8 60.4 30.6L60.5 30.5C60.6 30.4 60.8 30.5 60.9 30.4L61 30.2H61.2C61.3 30.1 61.3 29.9 61.4 29.9 61.9 29.6 62.4 29.3 62.8 29.2 63.8 29.1 64.4 29.7 65.2 30.3 65.3 30.5 65.1 30.7 65.2 30.9S65.3 31.6 65.2 32V32.2C65.1 32.3 65 32.5 64.9 32.7 64.9 32.8 64.9 32.9 64.8 33 64.8 33.1 64.6 33.1 64.6 33.1 64.4 33.4 64.2 33.6 64 33.9S63.7 34.5 63.5 34.7C63.2 35 62.7 35.1 62.3 35.4 62.2 35.5 62.1 35.7 61.9 35.8 61.8 35.9 61.4 36.1 61.2 36.2 61.1 36.2 61.2 36.3 61.1 36.3S60.9 36.5 60.8 36.5 60.5 36.7 60.3 36.8C60.2 36.9 60.2 37 60.1 37H59.9L59.8 37.2C59.7 37.3 59.6 37.2 59.5 37.3S59.4 37.5 59.3 37.6 59.1 37.6 59 37.7C58.8 37.8 58.7 38.1 58.5 38.2 58.4 38.3 58.4 38.3 58.3 38.3S58.1 38.5 58 38.6H57.8L57.7 38.8H57.5L57.4 39H57.2L57.1 39.2C57 39.3 56.9 39.2 56.8 39.3 56.6 39.4 56.5 39.7 56.3 39.8L55.4 40.7C55.3 40.9 55 40.9 55 41.2 55.1 41.6 55.2 41.7 55.5 41.9 55.6 41.9 55.7 42 55.7 42L56.1 42.4C56.2 42.5 56.3 42.4 56.4 42.5 56.5 42.5 56.5 42.7 56.5 42.7 56.6 42.8 56.7 42.7 56.8 42.8 56.9 42.8 56.9 43 57 43 57.1 43.1 57.3 43.2 57.4 43.3S57.6 43.3 57.7 43.4 57.9 43.8 58.1 44C58.5 44.1 58.9 44.2 59.2 44.5L59.6 44.9C59.7 45 59.7 45.1 59.8 45.1H60C60.1 45.2 60.3 45.3 60.5 45.5 60.6 45.6 60.6 45.7 60.7 45.7H60.9C61 45.8 61.2 46 61.4 46.1 61.5 46.2 61.5 46.3 61.6 46.3H61.8C61.9 46.4 62.1 46.6 62.3 46.7 62.4 46.7 62.5 46.7 62.6 46.8S62.9 47.2 63.1 47.4C63.2 47.4 63.3 47.6 63.3 47.6H63.5V47.7C63.6 47.8 63.7 47.7 63.8 47.8 63.9 47.8 63.9 48 64 48 64.1 48.1 64.2 48 64.3 48.1 64.5 48.2 64.6 48.5 64.8 48.7 64.9 48.8 65.1 48.9 65.2 49S65.2 49.3 65.3 49.4L65.5 49.5V49.7L65.7 49.8C65.8 50 65.7 50.1 65.9 50.2 66 50.6 65.8 50.9 65.8 51.2 65.9 51.2 65.9 51.3 65.9 51.4S66.1 51.7 66 52C65.9 52.4 65.2 53 64.8 53.2 64.7 53.5 64.5 53.7 64.3 53.9 64.1 54 63.8 54 63.6 54.1 63.7 54.1 63 54.4 62.9 54.2 62.8 54.1 62.8 54.1 62.6 54.1H62.4C62.3 54 61.5 54 61.2 53.9 61.2 53.9 61.2 53.8 61.1 53.8S60.9 53.6 60.7 53.6L60.4 53.5 60.1 53.2C60 53.2 60 53.1 59.9 53.1L59.6 53C60 53.3 60 53.1 59.8 53L59.6 52.9 59.3 52.6H59.1L59 52.4H58.8C58.7 52.3 58.7 52.1 58.5 52.1L58.3 52 58 51.7C57.9 51.7 57.9 51.6 57.8 51.6 57.7 51.5 57.5 51.3 57.4 51.3S57.3 51.1 57.2 51.1H57L56.7 50.8C56.6 50.8 56.6 50.7 56.5 50.7L56.4 50.6C56 50.4 55.6 50.5 55.3 50.3 55.2 50.3 55.3 50.2 55.2 50.2 55 50.2 55 49.9 54.8 49.8H54.6C54.5 49.7 54.5 49.6 54.3 49.5 54.2 49.4 54.1 49.4 54 49.3S53.8 49.2 53.7 49.1 53.2 48.7 52.9 48.7C52.7 48.8 52.7 48.9 52.6 49.1S52.5 49.5 52.5 49.7C52.4 50.3 52.5 50.9 52.4 51.7 52.4 52 52.3 52.4 52.3 52.9 52.3 53.2 52.4 53.2 52.3 53.5 52.3 53.6 52.5 54.4 52.3 54.5 52 54.8 52 55.5 52 55.9S52 56.7 51.9 57.1C51.9 57.5 51.7 57.9 51.7 58.2 51.6 59.2 51.7 60.1 51.7 61.1V61.3C51.6 61.9 51.7 63.1 51.7 64 51.7 64.3 51.6 64.5 51.6 64.7 51.6 65 51.7 65.3 51.7 65.6 51.8 66.5 51.8 67.6 51.8 68.6 51.8 69.4 51.8 70.3 51.7 71 51.6 71.3 51.7 71.8 51.6 72.3 51.6 72.6 51.5 72.9 51.4 73.1 51.2 73.8 51.1 74.8 51.1 75.8 51 75.9 50.9 75.9 50.8 76L50.7 76.2C50.6 76.3 50.4 76.2 50.3 76.3 50.1 76.4 49.8 76.6 49.3 76.5 49.1 76.5 48.6 76.1 48.2 76H48L47.7 75.9C47.6 75.7 47.4 75.7 47.2 75.5L46.8 75.1C46.4 74.8 46.2 74.6 46.1 74.3 45.9 73.9 46 73.5 46 73 45.9 71.9 45.9 70.9 45.9 69.6 45.9 69.6 46 69.6 46 69.5 46 69.5 45.9 69.5 45.9 69.4V69.1C45.9 67.8 45.9 66.5 46 65.1 46 64.9 46.1 64.7 46.1 64.5 46.2 62.6 45.9 60.3 46.1 58.3 46.2 57.4 46.2 56.6 46.2 55.7 46.2 53.8 46 51.9 46.2 50.3 46.3 49.4 46.7 48.6 46.2 47.8 45.8 47.6 45.5 48.1 45.2 48.1 45.1 48.1 45 48.3 44.9 48.3S44.8 48.4 44.7 48.4 44.6 48.6 44.5 48.6H44.3V48.7C44.2 48.7 44.1 48.7 44 48.8L43.9 49C43.8 49.1 43.7 49 43.6 49.1L43.5 49.3C43.4 49.4 43.3 49.3 43.2 49.4S43 49.8 42.8 49.9C42.7 50 42.6 49.9 42.5 50L42.4 50.2C42.3 50.3 42.2 50.2 42.1 50.3S41.8 50.7 41.6 50.8C41.5 50.9 41.3 51 41.2 51.1S41.1 51.3 41 51.3H40.8C40.3 51.8 40.3 52 40 52 39.8 52 39.8 52.3 39.6 52.3 39.5 52.3 39.5 52.5 39.4 52.5H39.2V52.6C38.9 52.8 38.6 52.7 38.3 52.8 38.3 52.8 38.3 52.9 38.2 52.9 38 52.9 37.4 53.3 37 53.2 37 53.2 37 53.1 36.9 53.1 36.7 53.1 36.6 53.1 36.4 53 36.3 53 36.1 53 36 52.9L35.6 52.5C35.5 52.4 35.3 52.2 35.2 52 35 52 35 52 35 51.8 35 51.7 34.9 51.7 34.9 51.7 34.8 51.3 34.8 50.2 35.1 49.7 35.1 49.6 35.2 49.7 35.2 49.6S35.5 49.2 35.6 49.1H35.8C35.9 49 35.9 48.9 36.1 48.8S36.7 48.5 36.9 48.3C37.2 48 37.3 47.7 37.7 47.5 37.8 47.5 37.8 47.4 37.9 47.4 38 47.3 38.1 47.3 38.2 47.2S38.4 47.1 38.5 47 38.8 46.9 38.8 46.9C38.9 46.8 38.9 46.6 39.1 46.6 39.2 46.6 39.3 46.4 39.4 46.4S39.6 46.2 39.7 46.2 40 45.9 40.2 45.8C40.4 45.6 40.7 45.5 41 45.3S41.9 44.7 42.4 44.3C42.5 44.3 42.4 44.2 42.5 44.2S42.7 44 42.9 44C43 44 43.1 43.8 43.2 43.8S43.5 43.7 43.6 43.6C44.2 43.2 45.2 42.9 44.7 42 44.7 41.9 44.6 42 44.6 41.9 44.6 41.7 44 41.3 43.8 41.1L43.2 40.5C42.9 40.3 42.6 40.3 42.4 40.1 42.3 39.8 41.9 39.5 41.7 39.2 41.6 39.1 41.5 38.9 41.4 38.7 41.3 38.6 41 38.3 40.8 38.2 40.7 38.1 40.3 37.8 40.1 37.7 40 37.7 39.9 37.7 39.8 37.6L39.7 37.4C39.6 37.3 39.5 37.3 39.3 37.2 39.2 37.1 39.1 37.1 39 37L38.8 36.8C38.6 36.7 38.4 36.5 38.2 36.4L38.1 36.2C38 36.1 37.9 36.1 37.7 36L37.6 35.8C37.5 35.7 37.4 35.7 37.2 35.6L37.1 35.4C37 35.3 36.8 35.3 36.7 35.2L36.3 34.8C36.2 34.7 36.3 34.6 36.2 34.5 36.2 34.5 36 34.5 36 34.4 35.9 34.2 35.8 34.1 35.7 33.9 35.6 33.8 35.4 33.7 35.3 33.6S35.3 33.4 35.2 33.3 34.7 33 34.6 32.8C34.5 32.7 34.6 32.6 34.5 32.5L34.3 32.4C34.2 32.3 34.2 32.2 34.2 32.1L34.1 31.7C33.8 31.5 34 29.6 34.1 29.2 34.1 29.1 34.2 29.2 34.2 29.1S34.4 28.9 34.5 28.8 34.7 28.6 34.9 28.5C35 28.5 35 28.4 35.1 28.4S35.5 28.1 35.7 28.1C35.8 28.1 35.9 27.9 36 27.9S36.3 27.7 36.6 27.7C37.6 27.6 38.3 28.3 39.4 28.1L39.7 28.4C40.2 28.8 40.7 29.4 41.3 29.9 41.6 30.1 41.8 30.4 42.1 30.6 42.2 30.7 42.3 30.7 42.4 30.8 42.4 30.8 42.8 31.2 42.9 31.2L43.1 31.3 43.2 31.5H43.4C43.5 31.6 43.5 31.7 43.6 31.8H43.8C43.9 31.9 43.9 32 44.1 32.1S44.6 32.4 44.8 32.6C44.9 32.7 45 32.7 45.1 32.8L45.2 33H45.4C45.5 33.1 45.5 33.2 45.6 33.3H45.8C45.9 33.4 46.2 33.8 46.5 33.8 46.9 33.3 46.8 32.8 46.9 32.1 47 30.4 46.8 28 47.1 26.4 47.1 26.2 47.2 25.9 47.3 25.7 47.3 25.6 47.3 25.4 47.4 25.3 47.4 25.2 47.6 25.2 47.6 25.1 47.8 24.8 48.1 24.5 48.4 24.3 48.5 24.2 48.6 24 48.7 24 48.8 23.9 49.1 23.9 49.3 23.9 49.4 23.9 49.5 23.7 49.5 23.7H49.8C50.1 23.6 50.3 23.6 50.9 23.7 51.2 23.7 51.4 23.7 51.6 23.8 51.6 23.8 51.6 23.9 51.7 23.9S52.6 24.6 52.6 24.8C52.6 24.8 52.7 24.9 52.7 25 52.8 25.2 52.8 25.3 52.9 25.5 52.9 25.6 53 25.7 53 25.8 53.1 26.1 53.3 27.5 53.2 28.2 53.1 28.7 53.1 29.9 53.1 30.8 52.8 32.1 52.8 33.8 52.9 35.3" fill="#3cb32d" data-fill-palette-color="accent"></path></svg></g></svg></g></svg></g><defs></defs></svg><rect width="395.52" height="70.19484460517629" fill="none" stroke="none" visibility="hidden"></rect></g></svg></g></svg>